{"title":"UNDISPUTED.2.2006.SWESUB.DivX -Lindoff.avi","uid":5724145,"size":733902848,"categoryP":"other","categoryS":"other","magnet":"?xt=urn:btih:92f03729521049724b5fa598a010b27aee227211&amp;dn=UNDISPUTED.2.2006.SWESUB.DivX+-Lindoff.avi&amp;tr=udp%3A%2F%2Ftracker.openbittorrent.com%3A80&amp;tr=udp%3A%2F%2Fopen.demonii.com%3A1337&amp;tr=udp%3A%2F%2Ftracker.coppersurfer.tk%3A6969&amp;tr=udp%3A%2F%2Fexodus.desync.com%3A6969","seeders":2,"leechers":0,"uploader":"Lindoff41","files":1,"time":1280397944,"description":"Undisputed 2 (2006)\n\nOriginaltitel\n\nUndisputed II: Last Man Standing\n\nLand, ÃƒÂ¥r, lÃƒÂ¤ngd\nUSA ÃƒÂ¥r 2006\n\nRegissÃƒÂ¶r\n\nIsaac Florentine\nManus\n\nJames Townsend\n\nDavid N. White\n\nSkÃƒÂ¥despelare\nMichael Jai White - George Chambers\nScott Adkins - Uri Boyka\nEli Danker - Crot\nBen Cross - Stevie Parker\n\n\n\n\n\n\n\nUNDISPUTED.2.2006.SWESUB.DivX \nFormat                           : AVI\nFormat/Info                      : Audio Video Interleave\nFile size                        : 700 MiB\nDuration                         : 1h 33mn\nOverall bit rate                 : 1 046 Kbps\nWriting application              : VirtualDubMod 1.5.10.2 (build 2542/release)\nWriting library                  : VirtualDubMod build 2542/release\n\nVideo\nID                               : 0\nFormat                           : MPEG-4 Visual\nFormat profile                   : Advanced Simple@L5\nFormat settings, BVOP            : Yes\nFormat settings, QPel            : No\nFormat settings, GMC             : No warppoints\nFormat settings, Matrix          : Default (H.263)\nMuxing mode                      : Packed bitstream\nCodec ID                         : XVID\nCodec ID/Hint                    : XviD\nDuration                         : 1h 33mn\nBit rate                         : 909 Kbps\nWidth                            : 592 pixels\nHeight                           : 320 pixels\nDisplay aspect ratio             : 1.850\nFrame rate                       : 25.000 fps\nColor space                      : YUV\nChroma subsampling               : 4:2:0\nBit depth                        : 8 bits\nScan type                        : Progressive\nBits/(Pixel*Frame)               : 0.192\nStream size                      : 608 MiB (87%)\nWriting library                  : XviD 1.2.1 (UTC 2008-12-04)\n\nAudio\nID                               : 1\nFormat                           : MPEG Audio\nFormat version                   : Version 1\nFormat profile                   : Layer 3\nMode                             : Joint stereo\nMode extension                   : MS Stereo\nCodec ID                         : 55\nCodec ID/Hint                    : MP3\nDuration                         : 1h 33mn\nBit rate mode                    : Variable\nBit rate                         : 128 Kbps\nChannel(s)                       : 2 channels\nSampling rate                    : 48.0 KHz\nStream size                      : 83.5 MiB (12%)\nAlignment                        : Aligned on interleaves\nInterleave, duration             : 24 ms (0.60 video frame)\nInterleave, preload duration     : 395 ms\nWriting library                  : LAME3.90.\nEncoding settings                : -m j -V 4 -q 2 -lowpass 17.6 --abr 128","torrent":{"xt":"urn:btih:92f03729521049724b5fa598a010b27aee227211","amp;dn":"UNDISPUTED.2.2006.SWESUB.DivX+-Lindoff.avi","amp;tr":["udp%3A%2F%2Ftracker.openbittorrent.com%3A80","udp%3A%2F%2Fopen.demonii.com%3A1337","udp%3A%2F%2Ftracker.coppersurfer.tk%3A6969","udp%3A%2F%2Fexodus.desync.com%3A6969"],"infoHash":"92f03729521049724b5fa598a010b27aee227211","infoHashBuffer":{"type":"Buffer","data":[146,240,55,41,82,16,73,114,75,95,165,152,160,16,178,122,238,34,114,17]},"announce":[],"urlList":[]}}